<svg width="68" height="110" fill="none" xmlns="http://www.w3.org/2000/svg"><path fill-rule="evenodd" clip-rule="evenodd" d="M32.313 89.811c-.458 3.263 1.816 6.266 5.092 6.726 2.866.403 5.61-1.291 6.521-3.998L51.72 69.21a16.22 16.22 0 00.243-9.304l-3.628.965c.619 2.355.578 4.807-.202 7.117L40.34 91.317c-.332 1.012-1.33 1.628-2.41 1.476a2.218 2.218 0 01-1.889-2.496l3.087-21.985c.422-3.003-1.691-5.795-4.707-6.218-3.015-.424-5.816 1.678-6.238 4.681L25.096 88.76a2.218 2.218 0 01-2.504 1.879c-1.042-.146-1.869-1.019-1.91-2.083l-1.066-24.572c-.251-5.781 3.466-10.892 9.07-12.411l25.783-7.078.16-.054c6.542-2.521 11.197-8.37 12.166-15.266 1.473-10.491-5.892-20.22-16.428-21.7L34.098 5.19C23.563 3.71 13.803 11.035 12.33 21.527c-1.473 10.492 5.892 20.221 16.428 21.7l.52-3.707c-8.488-1.192-14.412-9.018-13.225-17.47 1.187-8.453 9.038-14.345 17.526-13.153l16.269 2.285C58.336 12.374 64.26 20.2 63.11 28.658c-.776 5.524-4.51 10.217-9.73 12.243l-25.703 7.052c-7.304 1.998-12.149 8.652-11.84 16.181l1.1 24.614c.093 2.849 2.264 5.233 5.13 5.635 3.277.46 6.29-1.8 6.748-5.063L31.9 67.335a1.761 1.761 0 011.994-1.497 1.761 1.761 0 011.505 1.989L32.313 89.81zM1 79.508h4.934c.319 4.272 1.323 9.771 4.61 14.55 3.893 5.66 10.75 9.978 22.415 10.448h.002l.042-1.017.004 1.019h.041c11.51-.048 18.332-4.178 22.246-9.868 3.333-4.844 4.383-10.577 4.783-15.132H65v-4h-8.669l-.11 1.882c-.275 4.646-1.068 10.398-4.222 14.983-3.046 4.426-8.522 8.082-18.923 8.135-10.604-.438-16.181-4.276-19.236-8.717-3.145-4.572-3.858-10.123-4.015-14.357l-.07-1.926H1v4z" fill="#00AEDA"/></svg>