<svg width="68" height="110" fill="none" xmlns="http://www.w3.org/2000/svg"><path fill-rule="evenodd" clip-rule="evenodd" d="M36.48 99.19c0 3.728 2.96 6.736 6.63 6.736 3.21 0 5.962-2.33 6.546-5.508l4.962-27.37a18.7 18.7 0 00-1.168-10.464l-3.836 1.652c1.043 2.542 1.376 5.296.876 8.008l-4.962 27.37a2.435 2.435 0 01-2.418 2.033c-1.334 0-2.46-1.102-2.46-2.5V74.023c0-3.432-2.752-6.228-6.13-6.228-3.377 0-6.128 2.796-6.128 6.228v25.124c0 1.356-1.084 2.5-2.46 2.5a2.468 2.468 0 01-2.419-2.034l-4.961-27.37c-1.168-6.44 2.126-12.752 8.047-15.336l27.227-11.99.166-.085C60.79 40.977 65 33.689 65 25.809c0-11.99-9.59-21.735-21.39-21.735H25.39C13.59 4.074 4 13.82 4 25.81s9.59 21.734 21.39 21.734v-4.236c-9.507 0-17.22-7.838-17.22-17.498s7.713-17.5 17.22-17.5h18.22c9.507 0 17.22 7.838 17.262 17.498 0 6.313-3.377 12.16-8.797 15.252L24.93 53.01c-7.714 3.39-12.008 11.609-10.507 19.997l5.003 27.412c.542 3.178 3.294 5.508 6.505 5.508 3.669 0 6.63-3.008 6.63-6.736V74.066c0-1.102.875-1.992 1.959-1.992s1.96.89 1.96 1.992V99.19zM21.785 25.149c.266.27.626.423 1.003.423.376 0 .737-.152 1.003-.423a1.46 1.46 0 00.415-1.022v-2.312c0-.798-.635-1.445-1.418-1.445-.784 0-1.419.647-1.419 1.445v2.312c0 .383.15.75.416 1.022zm23.622 0c.266.27.627.423 1.003.423.376 0 .737-.152 1.003-.423a1.46 1.46 0 00.416-1.022v-2.312c0-.798-.635-1.445-1.419-1.445-.783 0-1.418.647-1.418 1.445v2.312c0 .383.15.75.415 1.022zm-13.106 1.29a5.464 5.464 0 004.597 0 5.558 5.558 0 001.884-1.431 1.462 1.462 0 00-.137-2.039 1.403 1.403 0 00-2.002.14 2.69 2.69 0 01-2.044.95 2.69 2.69 0 01-2.045-.95 1.403 1.403 0 00-2.001-.14 1.462 1.462 0 00-.137 2.038A5.56 5.56 0 0032.3 26.44z" fill="#00AEDA"/></svg>