<svg width="68" height="110" fill="none" xmlns="http://www.w3.org/2000/svg"><path d="M43.583 5H25.375C13.583 5 4 14.567 4 26.34c0 11.771 9.583 21.339 21.375 21.339v-4.16c-9.5 0-17.208-7.695-17.208-17.18 0-9.484 7.708-17.18 17.208-17.18h18.208c9.5 0 17.209 7.696 17.209 17.18 0 6.198-3.375 11.939-8.75 14.976L18.583 55.707v4.534L53.792 45.1l.208-.083c6.792-3.786 11-10.94 11-18.678C64.958 14.567 55.375 5 43.583 5zm-25 92.928l31.792-13.685v-4.534L18.583 93.394v4.534zm31.792-26.164L18.583 85.449v-4.534L50.375 67.23v4.534zM18.583 72.97l31.792-13.685V54.75L18.583 68.436v4.534zm8.334 27.87h15.125V105H26.917v-4.16z" fill="#00AEDA"/></svg>