<svg width="68" height="110" fill="none" xmlns="http://www.w3.org/2000/svg"><path fill-rule="evenodd" clip-rule="evenodd" d="M52.497 2.316L51.904 0l-1.827 1.541-6.706 5.655-5.05-4.465L35.955.638l-.127 3.156-.45 11.28-.064 1.574 1.575-.014c4.852-.043 8.004.416 10.52 1.315 2.51.897 4.5 2.271 7.003 4.271l1.288 1.03.903-1.38 6.184-9.445 1.73-2.642-3.141.329-6.705.702-2.174-8.498zm-8.182 8.009l5.868-4.95 1.903 7.438.321 1.255 1.289-.135 4.851-.508-3.56 5.437c-2.082-1.58-4.09-2.851-6.567-3.737-2.659-.951-5.768-1.428-9.983-1.487L38.7 7.07l3.654 3.232.97.858.99-.835zm-10.497 93.422c0 3.355 2.718 6.063 6.086 6.063 2.948 0 5.474-2.097 6.01-4.957l4.555-24.633a16.524 16.524 0 00-1.072-9.418l-3.521 1.487c.957 2.288 1.263 4.766.803 7.207l-4.555 24.632c-.191 1.068-1.11 1.831-2.22 1.831a2.259 2.259 0 01-2.258-2.25V81.097c0-3.088-2.526-5.605-5.627-5.605-3.1 0-5.627 2.517-5.627 5.605v22.612c0 1.22-.995 2.25-2.258 2.25-1.072 0-2.029-.763-2.22-1.831l-4.555-24.632c-1.072-5.796 1.952-11.478 7.387-13.804l24.996-10.79.153-.077C56.134 51.355 60 44.797 60 37.705c0-10.792-8.804-19.562-19.636-19.562H23.636C12.804 18.143 4 26.913 4 37.704s8.804 19.561 19.636 19.561v-3.813c-8.727 0-15.808-7.054-15.808-15.748 0-8.694 7.081-15.748 15.808-15.748h16.728c8.727 0 15.808 7.054 15.847 15.748 0 5.682-3.101 10.944-8.077 13.727L23.215 62.184c-7.081 3.05-11.024 10.448-9.646 17.998l4.594 24.671c.497 2.86 3.024 4.957 5.971 4.957 3.368 0 6.086-2.708 6.086-6.063V81.135c0-.991.804-1.792 1.8-1.792.994 0 1.798.8 1.798 1.792v22.612z" fill="#00AEDA"/></svg>