<svg width="68" height="110" fill="none" xmlns="http://www.w3.org/2000/svg"><path d="M26.599 56.929l27.227-11.995.166-.085C60.79 40.992 65 33.702 65 25.818c0-11.995-9.59-21.744-21.39-21.744H25.39C13.59 4.074 4 13.823 4 25.818s9.59 21.744 21.39 21.744v-4.239c-8.798 0-16.053-6.74-17.095-15.386h14.968c.167 5.171 4.336 9.325 9.465 9.325h3.586c5.128 0 9.298-4.154 9.465-9.325h14.926c-.667 5.468-3.836 10.384-8.63 13.14L24.93 53.029c-7.714 3.391-12.008 11.614-10.507 20.006l4.962 27.381c.583 3.221 3.335 5.51 6.504 5.51 3.67 0 6.63-3.009 6.63-6.74V74.053c0-1.102.875-1.992 1.96-1.992 1.083 0 1.959.89 1.959 1.992v25.135c0 3.73 2.96 6.739 6.63 6.739 3.21 0 5.962-2.331 6.504-5.51l4.962-27.38c.625-3.519.25-7.164-1.168-10.47L49.53 64.22a13.884 13.884 0 01.876 8.01l-4.962 27.382a2.469 2.469 0 01-2.418 2.034c-1.376 0-2.46-1.144-2.46-2.5V74.01c0-3.433-2.752-6.23-6.13-6.23-3.377 0-6.129 2.797-6.129 6.23v25.134c0 1.399-1.125 2.501-2.46 2.501a2.435 2.435 0 01-2.418-2.034L18.468 72.23c-1.126-6.4 2.21-12.716 8.13-15.301zm15.01-29.289c0 2.967-2.377 5.383-5.295 5.383h-3.586c-2.919 0-5.295-2.416-5.295-5.383v-3.645c0-2.967 2.376-5.383 5.295-5.383h3.586c2.918 0 5.295 2.416 5.295 5.383v3.645zm-5.337-13.266h-3.586c-5.128 0-9.298 4.154-9.465 9.325H8.295C9.337 15.052 16.592 8.313 25.39 8.313h18.22c8.798 0 16.053 6.739 17.095 15.386H45.737c-.125-5.171-4.337-9.325-9.465-9.325z" fill="#00AEDA"/></svg>