<svg width="68" height="110" fill="none" xmlns="http://www.w3.org/2000/svg"><path d="M43.11 105a6.612 6.612 0 01-6.63-6.614V73.719a1.955 1.955 0 00-1.96-1.955 1.955 1.955 0 00-1.959 1.955v24.667a6.612 6.612 0 01-6.63 6.614c-3.21 0-5.962-2.288-6.504-5.408L14.424 72.68c-1.501-8.236 2.793-16.306 10.507-19.634l27.143-11.73c5.42-3.037 8.798-8.778 8.798-14.976-.041-9.484-7.755-17.18-17.262-17.18H27.391c-1 10.067-9.006 18.137-19.096 19.136 1 8.569 8.297 15.224 17.095 15.224v4.16C13.59 47.679 4 38.11 4 26.339v-2.08h2.21c9.423-.083 17.095-7.778 17.095-17.18V5H43.61C55.41 5 65 14.567 65 26.34c0 7.737-4.211 14.891-11.008 18.677l-.166.083-27.227 11.772c-5.92 2.537-9.215 8.735-8.047 15.058l4.961 26.872c.209 1.165 1.251 1.997 2.419 1.997a2.462 2.462 0 002.46-2.455V73.677c0-3.37 2.752-6.115 6.129-6.115s6.129 2.746 6.129 6.115v24.667a2.462 2.462 0 002.46 2.455c1.21 0 2.21-.832 2.418-1.997L50.49 71.93c.5-2.662.167-5.366-.876-7.862l3.836-1.622a18.052 18.052 0 011.168 10.275l-4.962 26.871c-.584 3.12-3.335 5.408-6.546 5.408z" fill="#00AEDA"/></svg>